<svg xmlns="http://www.w3.org/2000/svg" xmlns:xlink="http://www.w3.org/1999/xlink" fill="none" version="1.1" width="110" height="30.84765625" viewBox="0 0 110 30.84765625"><defs><clipPath id="master_svg0_1548_99004"><rect x="0" y="0" width="110" height="30.84765625" rx="0"/></clipPath><linearGradient x1="0.5" y1="0" x2="0.5" y2="1" id="master_svg1_2_4758"><stop offset="0%" stop-color="#6100DF" stop-opacity="1"/><stop offset="100%" stop-color="#8C00F3" stop-opacity="1"/></linearGradient><linearGradient x1="0.8578860759735107" y1="0.8597633242607117" x2="-0.23947096889003522" y2="-0.2770304254010884" id="master_svg2_369_66336"><stop offset="0%" stop-color="#B200BB" stop-opacity="1"/><stop offset="100%" stop-color="#7F00D4" stop-opacity="1"/></linearGradient><linearGradient x1="2.4512760639190674" y1="1.268548846244812" x2="-2.4937063070345786" y2="0.3957497950486122" id="master_svg3_1499_008837"><stop offset="0%" stop-color="#F61B4A" stop-opacity="1"/><stop offset="100%" stop-color="#FF1365" stop-opacity="1"/></linearGradient><linearGradient x1="1" y1="-2.9802322387695312e-8" x2="0.8283643791748355" y2="1.3743413955571882" id="master_svg4_705_64456"><stop offset="0%" stop-color="#1A31FD" stop-opacity="1"/><stop offset="99.99992251396179%" stop-color="#4677FD" stop-opacity="1"/></linearGradient><linearGradient x1="-0.035017237067222595" y1="1.0188000202178955" x2="1.1171289340371107" y2="-0.055118479632076056" id="master_svg5_515_082138"><stop offset="0%" stop-color="#1BA7FF" stop-opacity="1"/><stop offset="100%" stop-color="#0953FF" stop-opacity="1"/></linearGradient><linearGradient x1="-0.16657708585262299" y1="-1.6673908233642578" x2="0.4448152457469603" y2="2.918205573921899" id="master_svg6_473_031643"><stop offset="0%" stop-color="#F9F26E" stop-opacity="1"/><stop offset="100%" stop-color="#FFF350" stop-opacity="1"/></linearGradient><linearGradient x1="0.010019190609455109" y1="0.009814964607357979" x2="1.1815121345306712" y2="1.180789589580826" id="master_svg7_1407_066745"><stop offset="0%" stop-color="#F3F314" stop-opacity="1"/><stop offset="100%" stop-color="#D8DC05" stop-opacity="1"/></linearGradient><linearGradient x1="0.9001821279525757" y1="0.0966641902923584" x2="-0.2705432754948121" y2="1.3094629445976402" id="master_svg8_473_77774"><stop offset="0%" stop-color="#FFCD50" stop-opacity="1"/><stop offset="98.57142567634583%" stop-color="#FFBE22" stop-opacity="1"/></linearGradient><linearGradient x1="2.3266992568969727" y1="1.8836963176727295" x2="0.020015758883253625" y2="-1.7777399832487177" id="master_svg9_26_004824"><stop offset="0%" stop-color="#FAD522" stop-opacity="1"/><stop offset="100%" stop-color="#FAE11C" stop-opacity="1"/></linearGradient><linearGradient x1="1.0316925048828125" y1="3.13677716255188" x2="-2.394929966533818" y2="0.8423505468244361" id="master_svga_2_4790"><stop offset="0%" stop-color="#FF8637" stop-opacity="1"/><stop offset="100%" stop-color="#FD6E1B" stop-opacity="1"/></linearGradient><linearGradient x1="-1.9736230373382568" y1="1.1028505563735962" x2="1.874701929209078" y2="0.7111547557714708" id="master_svgb_45_23877"><stop offset="0%" stop-color="#01CB75" stop-opacity="1"/><stop offset="100%" stop-color="#02AA6B" stop-opacity="1"/></linearGradient><linearGradient x1="-1.7581160068511963" y1="-0.4311377704143524" x2="2.5964468525686955" y2="0.3373601949877312" id="master_svgc_777_81081"><stop offset="0%" stop-color="#97E723" stop-opacity="1"/><stop offset="100%" stop-color="#7ACD00" stop-opacity="1"/></linearGradient></defs><g clip-path="url(#master_svg0_1548_99004)"><g><g><g style="opacity:0.20000000298023224;"><path d="M0,22.847898L0,8.0001011C0,3.5817671,3.5817671,0,8.0001011,0L22.847898,0C27.266232,0,30.848,3.5817671,30.848,8.0001011L30.848,22.847898C30.848,27.266232,27.266232,30.848,22.847898,30.848L8.0001011,30.848C3.5817671,30.848,0,27.266232,0,22.847898Z" fill="#FFFFFF" fill-opacity="1"/></g><g><g><g><g><path d="M15.429136037826538,28.043488158950808C15.429136037826538,28.043488158950808,22.717113737826537,28.043488158950808,22.717113737826537,28.043488158950808C22.717113737826537,28.043488158950808,15.429136037826538,15.423853158950806,15.429136037826538,15.423853158950806C15.429136037826538,15.423853158950806,15.429136037826538,28.043488158950808,15.429136037826538,28.043488158950808C15.429136037826538,28.043488158950808,15.429136037826538,28.043488158950808,15.429136037826538,28.043488158950808Z" fill-rule="evenodd" fill="url(#master_svg1_2_4758)" fill-opacity="1"/></g></g><g><g><path d="M22.722375637826538,28.043488158950808C22.722375637826538,28.043488158950808,22.822276337826537,28.043488158950808,22.822276337826537,28.043488158950808C25.69320103782654,28.043488158950808,28.04368603782654,25.693132158950803,28.04368603782654,22.822116158950806C28.04368603782654,22.822116158950806,28.04368603782654,22.706443058950804,28.04368603782654,22.706443058950804C28.04368603782654,22.706443058950804,15.429136037826538,15.423853158950806,15.429136037826538,15.423853158950806C15.429136037826538,15.423853158950806,22.722375637826538,28.043488158950808,22.722375637826538,28.043488158950808C22.722375637826538,28.043488158950808,22.722375637826538,28.043488158950808,22.722375637826538,28.043488158950808Z" fill-rule="evenodd" fill="url(#master_svg2_369_66336)" fill-opacity="1"/></g></g><g><g><path d="M15.429136037826538,15.423853158950806C15.429136037826538,15.423853158950806,28.04368603782654,22.706442558950805,28.04368603782654,22.706442558950805C28.04368603782654,22.706442558950805,28.04368603782654,15.423853158950806,28.04368603782654,15.423853158950806C28.04368603782654,15.423853158950806,15.429136037826538,15.423853158950806,15.429136037826538,15.423853158950806C15.429136037826538,15.423853158950806,15.429136037826538,15.423853158950806,15.429136037826538,15.423853158950806Z" fill-rule="evenodd" fill="url(#master_svg3_1499_008837)" fill-opacity="1"/></g></g><g><g><path d="M8.14685845375061,28.043488158950808C8.14685845375061,28.043488158950808,15.42947745375061,28.043488158950808,15.42947745375061,28.043488158950808C15.42947745375061,28.043488158950808,15.42947745375061,15.423853158950806,15.42947745375061,15.423853158950806C15.42947745375061,15.423853158950806,8.14685845375061,28.043488158950808,8.14685845375061,28.043488158950808C8.14685845375061,28.043488158950808,8.14685845375061,28.043488158950808,8.14685845375061,28.043488158950808Z" fill-rule="evenodd" fill="url(#master_svg4_705_64456)" fill-opacity="1"/></g></g><g><g><path d="M2.8042209148406982,22.711684958950805C2.8042209148406982,22.711684958950805,2.8042209148406982,22.822116158950806,2.8042209148406982,22.822116158950806C2.8042209148406982,25.693132158950803,5.1546566148406985,28.043488158950808,8.030929814840698,28.043488158950808C8.030929814840698,28.043488158950808,8.146595714840698,28.043488158950808,8.146595714840698,28.043488158950808C8.146595714840698,28.043488158950808,15.429252914840697,15.423853158950806,15.429252914840697,15.423853158950806C15.429252914840697,15.423853158950806,2.8042209148406982,22.711684958950805,2.8042209148406982,22.711684958950805C2.8042209148406982,22.711684958950805,2.8042209148406982,22.711684958950805,2.8042209148406982,22.711684958950805Z" fill-rule="evenodd" fill="url(#master_svg5_515_082138)" fill-opacity="1"/></g></g><g><g><path d="M8.141227006912231,2.803741693496704C8.141227006912231,2.803741693496704,15.429108406912231,15.423376693496705,15.429108406912231,15.423376693496705C15.429108406912231,15.423376693496705,15.429108406912231,2.803741693496704,15.429108406912231,2.803741693496704C15.429108406912231,2.803741693496704,8.141227006912231,2.803741693496704,8.141227006912231,2.803741693496704C8.141227006912231,2.803741693496704,8.141227006912231,2.803741693496704,8.141227006912231,2.803741693496704Z" fill-rule="evenodd" fill="url(#master_svg6_473_031643)" fill-opacity="1"/></g></g><g><g><path d="M8.030929814840698,2.803741693496704C5.1546566148406985,2.803741693496704,2.8042209148406982,5.154207193496704,2.8042209148406982,8.025126693496704C2.8042209148406982,8.025126693496704,2.8042209148406982,8.135529793496705,2.8042209148406982,8.135529793496705C2.8042209148406982,8.135529793496705,15.429252914840697,15.423376693496705,15.429252914840697,15.423376693496705C15.429252914840697,15.423376693496705,8.1413338148407,2.803741693496704,8.1413338148407,2.803741693496704C8.1413338148407,2.803741693496704,8.030929814840698,2.803741693496704,8.030929814840698,2.803741693496704C8.030929814840698,2.803741693496704,8.030929814840698,2.803741693496704,8.030929814840698,2.803741693496704Z" fill-rule="evenodd" fill="url(#master_svg7_1407_066745)" fill-opacity="1"/></g></g><g><g><path d="M22.722375637826538,2.803741693496704C22.722375637826538,2.803741693496704,15.429136037826538,15.423376693496705,15.429136037826538,15.423376693496705C15.429136037826538,15.423376693496705,28.04368603782654,8.146051693496705,28.04368603782654,8.146051693496705C28.04368603782654,8.146051693496705,28.04368603782654,8.030388093496704,28.04368603782654,8.030388093496704C28.04368603782654,5.154207193496704,25.69320103782654,2.803741693496704,22.822276337826537,2.803741693496704C22.822276337826537,2.803741693496704,22.722375637826538,2.803741693496704,22.722375637826538,2.803741693496704C22.722375637826538,2.803741693496704,22.722375637826538,2.803741693496704,22.722375637826538,2.803741693496704Z" fill-rule="evenodd" fill="url(#master_svg8_473_77774)" fill-opacity="1"/></g></g><g><g><path d="M15.429136037826538,2.803741693496704C15.429136037826538,2.803741693496704,15.429136037826538,15.423376693496705,15.429136037826538,15.423376693496705C15.429136037826538,15.423376693496705,22.717113737826537,2.803741693496704,22.717113737826537,2.803741693496704C22.717113737826537,2.803741693496704,15.429136037826538,2.803741693496704,15.429136037826538,2.803741693496704C15.429136037826538,2.803741693496704,15.429136037826538,2.803741693496704,15.429136037826538,2.803741693496704Z" fill-rule="evenodd" fill="url(#master_svg9_26_004824)" fill-opacity="1"/></g></g><g><g><path d="M15.429136037826538,15.423400679788209C15.429136037826538,15.423400679788209,28.04368603782654,15.423400679788209,28.04368603782654,15.423400679788209C28.04368603782654,15.423400679788209,28.04368603782654,8.146073579788208,28.04368603782654,8.146073579788208C28.04368603782654,8.146073579788208,15.429136037826538,15.423400679788209,15.429136037826538,15.423400679788209C15.429136037826538,15.423400679788209,15.429136037826538,15.423400679788209,15.429136037826538,15.423400679788209Z" fill-rule="evenodd" fill="url(#master_svga_2_4790)" fill-opacity="1"/></g></g><g><g><path d="M2.8042209148406982,15.423853158950806C2.8042209148406982,15.423853158950806,2.8042209148406982,22.711684958950805,2.8042209148406982,22.711684958950805C2.8042209148406982,22.711684958950805,15.429252914840697,15.423853158950806,15.429252914840697,15.423853158950806C15.429252914840697,15.423853158950806,2.8042209148406982,15.423853158950806,2.8042209148406982,15.423853158950806C2.8042209148406982,15.423853158950806,2.8042209148406982,15.423853158950806,2.8042209148406982,15.423853158950806Z" fill-rule="evenodd" fill="url(#master_svgb_45_23877)" fill-opacity="1"/></g></g><g><g><path d="M2.8042209148406982,15.423059241787719C2.8042209148406982,15.423059241787719,15.429252914840697,15.423059241787719,15.429252914840697,15.423059241787719C15.429252914840697,15.423059241787719,2.8042209148406982,8.13522744178772,2.8042209148406982,8.13522744178772C2.8042209148406982,8.13522744178772,2.8042209148406982,15.423059241787719,2.8042209148406982,15.423059241787719C2.8042209148406982,15.423059241787719,2.8042209148406982,15.423059241787719,2.8042209148406982,15.423059241787719Z" fill-rule="evenodd" fill="url(#master_svgc_777_81081)" fill-opacity="1"/></g></g></g></g></g><g><g><path d="M55.36617655859375,10.270350007653809C56.674558558593745,10.270350007653809,57.83660355859375,10.475582107653809,58.83611155859375,10.902184007653808C59.83664855859375,11.313576207653808,60.68890155859375,11.902647507653809,61.36551255859375,12.637082107653809C62.82102955859375,14.20949840765381,63.423496558593754,16.341597907653806,63.423496558593754,18.45932890765381C63.423496558593754,19.54721690765381,63.29141655859375,20.59142790765381,63.012077558593745,21.576681907653807C62.73274955859375,22.56103590765381,62.27662455859375,23.42849790765381,61.64484355859375,24.193321907653807C61.01203555859375,24.94298490765381,60.17495155859375,25.54622590765381,59.160156558593755,26.001345907653807C57.20470855859375,26.85454290765381,53.54292655859375,26.839376907653808,51.61690955859375,26.001345907653807C50.58797155859375,25.561503907653808,49.76415255859375,24.958151907653807,49.11710155859375,24.193321907653807C48.48524185859375,23.44366190765381,48.01492785859375,22.56103590765381,47.74982645859375,21.576681907653807C47.482061358593754,20.68104790765381,47.33679485859375,19.74920190765381,47.31258965859375,18.75839990765381C47.31258965859375,18.75839990765381,47.30896185859375,18.45932890765381,47.30896185859375,18.45932890765381C47.30896185859375,17.29743490765381,47.48568725859375,16.223801907653808,47.82394405859375,15.239449907653809C48.17644695859375,14.239936907653808,48.67622555859375,13.386733007653808,49.36792955859375,12.637082107653809C50.04345155859375,11.902647507653809,50.88156555859375,11.328784007653809,51.89624155859375,10.902184007653808C52.89586555859375,10.48982860765381,54.05790555859375,10.270350007653809,55.36617655859375,10.270350007653809C55.36617655859375,10.270350007653809,55.36617655859375,10.270350007653809,55.36617655859375,10.270350007653809ZM43.35349745859375,4.212431907653809C44.14686535859375,4.212431907653809,46.20584295859375,4.373952047653809,46.76453115859375,4.697942767653808C47.32320975859375,5.035229627653808,47.60255335859375,5.565391707653808,47.60255335859375,6.299836207653809C47.60255335859375,6.696982407653809,47.47048475859375,7.049466107653808,47.20634265859375,7.344001507653809C46.94125745859375,7.637587807653809,46.60299875859375,7.785811707653808,46.20584295859375,7.785811707653808C46.04431055859375,7.785811707653808,45.88279005859375,7.770602507653809,45.72127005859375,7.741148007653809C45.16162295859375,7.637587807653809,43.58818765859375,7.432366107653809,43.14731125859375,7.976785707653809C43.00099415859375,8.167749407653808,42.91263195859375,8.417633507653807,42.91263195859375,8.711219807653809C42.91263195859375,8.711219807653809,42.91263195859375,12.637082107653809,42.91263195859375,12.637082107653809C42.91263195859375,12.637082107653809,45.20628925859375,12.637082107653809,45.20628925859375,12.637082107653809C45.83813665859375,12.637082107653809,46.32365415859375,12.73970320765381,46.66191105859375,12.960121107653809C47.01441475859375,13.180550607653808,47.17594715859375,13.548209207653809,47.17594715859375,14.063186607653808C47.17594715859375,14.578162907653809,47.00016875859375,14.945807907653808,46.66191105859375,15.16533290765381C46.338859558593754,15.371504907653808,45.83813665859375,15.489302907653808,45.20628925859375,15.489302907653808C45.20628925859375,15.489302907653808,42.92687845859375,15.489302907653808,42.92687845859375,15.489302907653808C42.92687845859375,15.489302907653808,42.92687845859375,24.39949290765381,42.92687845859375,24.39949290765381C42.92687845859375,25.12064290765381,42.73589615859375,25.66413390765381,42.33873845859375,26.03178290765381C41.92732425859375,26.39852190765381,41.41234325859375,26.590437907653808,40.75103445859375,26.590437907653808C40.08879005859375,26.590437907653808,39.55955379859375,26.39852190765381,39.16334223859375,26.03178290765381C38.76617939859375,25.66413390765381,38.55999755859375,25.12064290765381,38.55999755859375,24.39949290765381C38.55999755859375,24.39949290765381,38.55999755859375,8.40243670765381,38.55999755859375,8.40243670765381C38.55999755859375,7.741148007653809,38.69206770859375,7.137830007653808,38.94195732859375,6.608618007653808C39.19279592859375,6.079406507653808,39.54530101859375,5.638547507653809,40.00137445859375,5.286063807653809C40.44223955859375,4.918361007653808,40.95627425859375,4.653279777653808,41.53015545859375,4.4765627676538085C42.10310195859375,4.300796493653809,42.72069115859375,4.212431907653809,43.35349745859375,4.212431907653809C43.35349745859375,4.212431907653809,43.35349745859375,4.212431907653809,43.35349745859375,4.212431907653809ZM81.30331455859374,10.181046507653809C82.61169455859374,10.181046507653809,83.77375455859375,10.387218907653809,84.77325455859375,10.81381940765381C85.77288455859374,11.239470007653809,86.61087455859375,11.814284307653809,87.30264655859375,12.548728907653809C87.97915255859375,13.28409960765381,88.49309955859374,14.151561707653808,88.83140155859374,15.151979907653809C89.18487555859375,16.15058890765381,89.36064555859375,17.22422090765381,89.36064555859375,18.37106790765381C89.36064555859375,19.459859907653808,89.22856155859375,20.503050907653808,88.94921855859374,21.48740290765381C88.66989155859375,22.47356490765381,88.21375655859376,23.34102690765381,87.58198155859375,24.104946907653808C86.95009655859374,24.854610907653807,86.11106455859375,25.457964907653807,85.09730155859376,25.91398490765381C84.06825655859376,26.35574990765381,82.81792855859375,26.590437907653808,81.31758155859376,26.590437907653808C79.83251555859374,26.590437907653808,78.56883955859375,26.36910390765381,77.53888655859376,25.91398490765381C76.50983055859375,25.473126907653807,75.68700755859375,24.869776907653808,75.05420255859374,24.104946907653808C74.42241655859375,23.34102690765381,73.95204155859375,22.47356490765381,73.68696555859376,21.48740290765381C73.39336355859375,20.518326907653808,73.26037555859375,19.474117907653806,73.26037555859375,18.37106790765381C73.26037555859375,17.20996490765381,73.43704955859374,16.136333907653807,73.77536055859375,15.151979907653809C74.12780355859374,14.151561707653808,74.62761355859375,13.28409960765381,75.30409955859375,12.548728907653809C75.98059055859375,11.814284307653809,76.81871055859375,11.239470007653809,77.83338155859374,10.81381940765381C78.83301555859376,10.401465907653808,79.99504855859375,10.181046507653809,81.30331455859374,10.181046507653809C81.30331455859374,10.181046507653809,81.30331455859374,10.181046507653809,81.30331455859374,10.181046507653809ZM66.90859555859375,5.741169407653809C67.56992155859375,5.741169407653809,68.08489755859375,5.932133007653809,68.49631855859374,6.299836207653809C68.89346655859376,6.667528107653808,69.08441355859375,7.2119362076538085,69.08441355859375,7.932123707653808C69.08441355859375,7.932123707653808,69.08441355859375,11.724980307653809,69.08441355859375,11.724980307653809C69.08441355859375,11.724980307653809,71.15767655859375,11.724980307653809,71.15767655859375,11.724980307653809C71.79048155859374,11.724980307653809,72.27501655859375,11.827590907653809,72.61331555859374,12.048971207653809C72.95161455859375,12.269390107653809,73.12829255859376,12.637082107653809,73.12829255859376,13.15204620765381C73.12829255859376,13.666006107653809,72.95161455859375,14.033764807653808,72.61331555859374,14.254193907653809C72.27501655859375,14.475529907653808,71.79048155859374,14.592420907653809,71.15767655859375,14.592420907653809C71.15767655859375,14.592420907653809,69.08441355859375,14.592420907653809,69.08441355859375,14.592420907653809C69.08441355859375,14.592420907653809,69.08441355859375,22.16385390765381,69.08441355859375,22.16385390765381C69.08441355859375,23.67924990765381,70.81937755859374,23.17955090765381,71.71634655859376,23.17955090765381C72.20189255859376,23.17955090765381,72.56962555859374,23.310700907653807,72.83379355859375,23.561457907653807C73.09886555859376,23.825562907653808,73.23095355859374,24.17815890765381,73.23095355859374,24.635086907653807C73.23095355859374,25.928242907653807,71.30493155859375,26.575275907653808,69.20222855859375,26.575275907653808C67.61463355859375,26.575275907653808,66.46775855859374,26.25221190765381,65.77700955859375,25.60427790765381C65.08523555859375,24.958151907653807,64.73279155859375,23.98715090765381,64.73279155859375,22.693995907653807C64.73279155859375,22.693995907653807,64.73279155859375,7.932123707653808,64.73279155859375,7.932123707653808C64.73279155859375,7.2119362076538085,64.93798255859375,6.667528107653808,65.33514055859375,6.299836207653809C65.73229255859374,5.932133007653809,66.26153555859375,5.741169407653809,66.90859555859375,5.741169407653809C66.90859555859375,5.741169407653809,66.90859555859375,5.741169407653809,66.90859555859375,5.741169407653809ZM92.21293255859375,10.079476807653808C92.77263255859376,10.079476807653808,93.24290055859376,10.255244207653808,93.60972255859375,10.607738507653808C93.99262255859375,10.960232707653809,94.18355955859374,11.46094230765381,94.18355955859374,12.122217207653808C94.18355955859374,12.122217207653808,94.18355955859374,13.799190507653808,94.18355955859374,13.799190507653808C94.18355955859374,13.799190507653808,94.24252655859375,13.799190507653808,94.24252655859375,13.799190507653808C94.36035155859375,13.343168307653809,94.52185455859376,12.88705630765381,94.72796655859375,12.460454907653808C94.93418155859375,12.01960750765381,95.16891455859374,11.636709207653809,95.46341655859375,11.28422350765381C95.74275955859375,10.931728807653808,96.09531055859375,10.652390007653809,96.47718455859375,10.43197150765381C96.85917655859376,10.210590807653809,97.33048255859376,10.107980207653808,97.85971855859376,10.107980207653808C98.55046055859376,10.107980207653808,99.12428255859375,10.314152207653809,99.58041355859375,10.711299907653808C100.02126355859374,11.108446607653809,100.25599655859375,11.622459907653809,100.25599655859375,12.24003700765381C100.25599655859375,12.637182207653808,100.19804355859375,12.974469207653808,100.08023855859375,13.253774607653808C99.96241755859376,13.53316020765381,99.80089555859375,13.754494707653809,99.59468055859375,13.930337907653808C99.38845855859375,14.10799410765381,99.15281655859374,14.224772907653808,98.88876355859375,14.297985907653809C98.63885455859375,14.372102907653808,98.37468755859375,14.415784907653808,98.10961155859374,14.415784907653808C98.10961155859374,14.415784907653808,97.33048255859376,14.415784907653808,97.33048255859376,14.415784907653808C96.44776155859375,14.415784907653808,95.78643755859375,14.769283907653808,95.31617355859376,15.474251907653809C94.84488255859375,16.18012290765381,94.61013455859376,17.44566890765381,94.61013455859376,19.253802907653807C94.61013455859376,19.253802907653807,94.61013455859376,24.32639790765381,94.61013455859376,24.32639790765381C94.61013455859376,24.899311907653807,94.46287555859375,25.413384907653807,94.16930055859375,25.85514590765381C93.87479755859374,26.29600090765381,93.28659055859376,26.51643490765381,92.43432255859375,26.51643490765381C91.58115755859376,26.51643490765381,90.99295055859375,26.29600090765381,90.69845555859375,25.85514590765381C90.40486155859375,25.413384907653807,90.24335055859375,24.91458590765381,90.24335055859375,24.32639790765381C90.24335055859375,24.32639790765381,90.24335055859375,12.122217207653808,90.24335055859375,12.122217207653808C90.24335055859375,11.46094230765381,90.43428455859376,10.960232707653809,90.81717655859376,10.607738507653808C91.19917255859374,10.255244207653808,91.65426655859375,10.079476807653808,92.21293255859375,10.079476807653808C92.21293255859375,10.079476807653808,92.21293255859375,10.079476807653808,92.21293255859375,10.079476807653808ZM55.395719558593754,13.504532807653808C54.763824558593754,13.504532807653808,54.20516255859375,13.636586207653808,53.733863558593754,13.872290607653808C53.26359355859375,14.122140907653808,52.88160655859375,14.475529907653808,52.58698855859375,14.91548490765381C52.29339555859375,15.357247907653809,52.05775255859375,15.88647990765381,51.91049955859375,16.48983390765381C51.76917955859375,17.01691690765381,51.695496558593746,17.589041907653808,51.67930155859375,18.196802907653808C51.67930155859375,18.196802907653808,51.67587855859375,18.45932890765381,51.67587855859375,18.45932890765381C51.67587855859375,19.12061790765381,51.748990558593746,19.75338790765381,51.88198555859375,20.35583590765381C52.02832455859375,20.95907690765381,52.23454555859375,21.48740290765381,52.543304558593746,21.95870090765381C52.83689555859375,22.414726907653808,53.21979555859375,22.78237290765381,53.69017955859375,23.04648090765381C54.16044555859375,23.310700907653807,54.71911255859375,23.44366190765381,55.38146355859375,23.44366190765381C56.042781558593745,23.44366190765381,56.60144655859375,23.310700907653807,57.07171655859375,23.04648090765381C57.54301255859375,22.78237290765381,57.92500255859375,22.414726907653808,58.21859355859375,21.95870090765381C58.51309355859375,21.50256790765381,58.733570558593755,20.973331907653808,58.88082455859375,20.35583590765381C59.01290655859375,19.75338790765381,59.08704555859375,19.12061790765381,59.08704555859375,18.45932890765381C59.08704555859375,17.73919990765381,59.01290655859375,17.09216690765381,58.86565755859375,16.48983390765381C58.71829055859375,15.88647990765381,58.49792655859375,15.371504907653808,58.20433455859375,14.91548490765381C57.909717558593755,14.475529907653808,57.51255755859375,14.122140907653808,57.057460558593746,13.872290607653808C56.58719055859375,13.622327807653809,56.042781558593745,13.504532807653808,55.395719558593754,13.504532807653808C55.395719558593754,13.504532807653808,55.395719558593754,13.504532807653808,55.395719558593754,13.504532807653808ZM81.30331455859374,13.41615390765381C80.67154355859375,13.41615390765381,80.11184655859375,13.533045807653808,79.65674955859376,13.78391460765381C79.18647755859375,14.033764807653808,78.80358155859375,14.387154907653809,78.50987655859376,14.82801290765381C78.21537355859374,15.268870907653808,77.98074355859376,15.798105907653808,77.83338155859374,16.401457907653807C77.70461655859376,16.928542907653807,77.63241155859376,17.500661907653807,77.61643955859375,18.10842790765381C77.61643955859375,18.10842790765381,77.61302555859375,18.37106790765381,77.61302555859375,18.37106790765381C77.61302555859375,19.032353907653807,77.68613055859376,19.66512590765381,77.81821055859375,20.267462907653808C77.95120655859375,20.87081590765381,78.17169155859375,21.399933907653807,78.48044555859374,21.856068907653807C78.77403655859375,22.312090907653808,79.15694455859375,22.67883190765381,79.62732355859376,22.943960907653807C80.09758355859375,23.20806790765381,80.65637555859375,23.34102690765381,81.31758155859376,23.34102690765381C81.97992755859374,23.34102690765381,82.53859355859376,23.20806790765381,83.00885755859375,22.943960907653807C83.47924455859375,22.67883190765381,83.86214455859374,22.312090907653808,84.15573155859374,21.856068907653807C84.45023755859376,21.399933907653807,84.67071555859374,20.87081590765381,84.80279555859374,20.267462907653808C84.95004655859375,19.66512590765381,85.00890355859374,19.032353907653807,85.00890355859374,18.37106790765381C85.00890355859374,17.650822907653808,84.93579055859375,17.003791907653806,84.78854355859374,16.401457907653807C84.64128855859374,15.813268907653809,84.42080655859375,15.283130907653808,84.11204955859375,14.82801290765381C83.81743255859375,14.387154907653809,83.42027255859375,14.033764807653808,82.96517955859375,13.78391460765381C82.49387355859375,13.533045807653808,81.95038955859374,13.41615390765381,81.30331455859374,13.41615390765381C81.30331455859374,13.41615390765381,81.30331455859374,13.41615390765381,81.30331455859374,13.41615390765381Z" fill-rule="evenodd" fill="#000000" fill-opacity="1"/></g></g></g></g></svg>