<svg xmlns="http://www.w3.org/2000/svg" xmlns:xlink="http://www.w3.org/1999/xlink" fill="none" version="1.1" width="29" height="14" viewBox="0 0 29 14"><g><rect x="0" y="0" width="29" height="14" rx="7" fill="#DB2358" fill-opacity="1"/><g><path d="M10.1845,10L8.9245,10L6.0715,5.689L6.0715,10L4.8115,10L4.8115,3.709L6.0715,3.709L8.9245,8.029L8.9245,3.709L10.1845,3.709L10.1845,10ZM12.6865,4.734999999999999L12.6865,6.31L14.8015,6.31L14.8015,7.309L12.6865,7.309L12.6865,8.974L15.0715,8.974L15.0715,10L11.4265,10L11.4265,3.709L15.0715,3.709L15.0715,4.734999999999999L12.6865,4.734999999999999ZM24.6115,3.718L22.8565,10L21.3715,10L20.1925,5.527L18.9595,10.009L17.4835,10.009L15.7915,3.718L17.1415,3.718L18.2485,8.596L19.5265,3.718L20.9305,3.718L22.1365,8.568999999999999L23.2525,3.718L24.6115,3.718Z" fill="#FFFFFF" fill-opacity="1"/></g></g></svg>